<?xml version="1.0" encoding="UTF-8"?>
<svg id="Layer_6_copy" data-name="Layer 6 copy" xmlns="http://www.w3.org/2000/svg" viewBox="0 0 776 512">
  <defs>
    <style>
      .cls-1 {
        fill: #699dd4;
      }

      .cls-1, .cls-2 {
        stroke-width: 0px;
      }

      .cls-2 {
        fill: #182550;
      }
    </style>
  </defs>
  <path class="cls-1" d="M566.9,511.39h-226.76c-.04-.93-.12-1.86-.12-2.79,0-55.15-.02-110.3.05-165.45,0-2.35-.67-2.83-2.91-2.83-39.29.07-149.24.08-164.93.01-1.65,0-2.16.38-2.16,2.11.06,20.7.05,41.39.04,62.09-.01,35.62-.03,71.24-.05,106.86-56.52,0-113.03,0-169.55.04-.89,0-1.61-.72-1.61-1.61.04-56.49.04-112.99.04-169.48h159.69c-8.12-.73-16.15-1.91-24.13-3.49-43.55-8.61-83.36-34.99-106.67-72.31C3.5,225.57-1.06,193.02-1.06,176.98c0-58.36-.04-116.72-.04-175.08C-1.1.52-.88.29.51.29c56.52,0,113.03.04,169.55.04.01.76.04,1.51.04,2.27,0,54.96,0,109.93.02,164.89,0,.89-.58,2.14,1.31,2.14,18.42-.06,36.85-.05,55.27-.07.7.02,74.63.05,110.89.12,2.1,0,2.46-.66,2.46-2.56-.05-54.78-.04-109.57-.03-164.35,0-.81.08-1.62.12-2.44,56.92,0,113.85,0,170.77,0-.02.82-.05,1.63-.05,2.45,0,55.33-.01,110.65.04,165.98,0,2-.41,2.63-2.54,2.62-27.41-.08-54.82-.05-82.23-.04-.86,0-1.72.18-2.58.28-9.6-.97-19.22-.29-28.82-.42-9.56-.12-19.12-.03-30.08-.03,1.94.37,2.5.48,3.06.58,35.28,5.95,66,21.15,91.48,46.24,34.62,34.1,51.61,75.75,51.64,124.31.03,55.62.02,111.23-.03,166.85,0,1.24,1.01,2.25,2.25,2.24,17.95-.05,35.91,0,53.86,0Z"/>
  <path class="cls-1" d="M604.81,509.13c0-55.24.02-110.48-.06-165.73,0-2.58.71-3.1,3.18-3.09,55.03.08,110.06.06,165.09.06.68,0,1.36.04,2.03.04.49,0,.41.6.41.91,0,56.19,0,112.31.04,168.5,0,1.34-.28,1.61-1.61,1.61-56.37-.04-169.09.06-169.09.06,0,0,0-1.6,0-2.36Z"/>
  <path class="cls-2" d="M423.55,171.61c71.13,10.79,129.47,68.13,141.29,138.81,1.55,9.27,2.44,18.58,2.57,27.97,0,0-.07.07-.07.07l.1.03c.02,38.64.03,77.29.05,115.93,0,18.59,0,37.19,0,55.78,0,.4,0,1.19,0,1.19h-.59c-17.96-.01-35.92-.05-53.89,0-1.77,0-2.22-.48-2.22-2.24.05-55.62.06-111.23.03-166.85-.03-48.56-17.02-90.21-51.64-124.31-25.47-25.09-56.2-40.29-91.48-46.24-.56-.09-1.12-.21-3.06-.58,10.96,0,20.52-.1,30.08.03,9.61.12,19.23-.55,28.82.42Z"/>
  <path class="cls-2" d="M226.75.32c-.01,48.66-.03,97.32-.04,145.98,0,7.75,0,15.5-.01,23.25-18.42.01-36.85.01-55.27.07-1.89,0-1.31-1.25-1.31-2.14-.02-54.96-.02-109.93-.02-164.89,0-.76-.02-1.51-.04-2.27,18.9,0,37.79,0,56.69,0Z"/>
  <polygon class="cls-1" points="567.43 338.49 567.33 338.46 567.41 338.39 567.51 338.42 567.43 338.49"/>
</svg>