<?xml version="1.0" encoding="UTF-8"?>
<svg id="Layer_6_copy" data-name="Layer 6 copy" xmlns="http://www.w3.org/2000/svg" viewBox="0 0 512 512">
  <defs>
    <style>
      .cls-1 {
        fill: #000;
      }

      .cls-1, .cls-2, .cls-3 {
        stroke-width: 0px;
      }

      .cls-2 {
        fill: #699dd4;
      }

      .cls-3 {
        fill: #ef4723;
      }
    </style>
  </defs>
  <path class="cls-3" d="M374.38,424.32h-149.39c-.03-.61-.08-1.23-.08-1.84,0-36.33-.01-72.67.03-109,0-1.55-.44-1.86-1.92-1.86-25.88.05-98.32.05-108.66,0-1.09,0-1.43.25-1.42,1.39.04,13.63.03,27.27.03,40.9,0,23.47-.02,46.93-.03,70.4-37.23,0-74.46,0-111.7.02-.59,0-1.06-.47-1.06-1.06.03-37.22.02-74.44.02-111.65h105.2c-5.35-.48-10.64-1.26-15.9-2.3-28.69-5.67-54.92-23.05-70.27-47.64C3.22,236.02.21,214.58.21,204.01c0-38.45-.02-76.89-.02-115.34,0-.91.14-1.06,1.06-1.06,37.23,0,74.46.02,111.7.02,0,.5.03,1,.03,1.5,0,36.21,0,72.42.01,108.63,0,.59-.38,1.41.86,1.41,12.14-.04,24.28-.04,36.41-.05.46.02,49.16.03,73.05.08,1.38,0,1.62-.43,1.62-1.69-.03-36.09-.03-72.18-.02-108.28,0-.53.05-1.07.08-1.6,37.5,0,75,0,112.5,0-.01.54-.03,1.07-.03,1.61,0,36.45,0,72.9.03,109.34,0,1.32-.27,1.73-1.67,1.73-18.06-.05-36.12-.04-54.17-.03-.57,0-1.13.12-1.7.19-6.32-.64-12.66-.19-18.99-.28-6.3-.08-12.6-.02-19.82-.02,1.28.24,1.65.32,2.01.38,23.24,3.92,43.48,13.93,60.27,30.46,22.81,22.46,34,49.91,34.02,81.89.02,36.64.01,73.28-.02,109.92,0,.82.66,1.48,1.48,1.48,11.83-.03,23.65,0,35.48,0Z"/>
  <path class="cls-3" d="M399.36,422.84c0-36.39.02-72.79-.04-109.18,0-1.7.47-2.04,2.09-2.04,36.25.05,72.51.04,108.76.04.45,0,.89.02,1.34.02.33,0,.27.4.27.6,0,37.02,0,73.99.02,111.01,0,.88-.18,1.06-1.06,1.06-37.14-.03-111.4.04-111.4.04,0,0,0-1.06,0-1.55Z"/>
  <path class="cls-1" d="M279.95,200.48c46.86,7.11,85.29,44.89,93.08,91.45,1.02,6.11,1.61,12.24,1.69,18.43,0,0-.05.05-.05.05l.06.02c.01,25.46.02,50.92.03,76.38,0,12.25,0,24.5,0,36.75,0,.26,0,.78,0,.78h-.39c-11.83,0-23.67-.04-35.5,0-1.17,0-1.46-.32-1.46-1.48.03-36.64.04-73.28.02-109.92-.02-31.99-11.21-59.43-34.02-81.89-16.78-16.53-37.02-26.54-60.27-30.46-.37-.06-.74-.14-2.01-.38,7.22,0,13.52-.06,19.82.02,6.33.08,12.67-.36,18.99.28Z"/>
  <path class="cls-1" d="M150.3,87.63c0,32.06-.02,64.11-.03,96.17,0,5.11,0,10.21,0,15.32-12.14,0-24.28,0-36.41.05-1.24,0-.86-.82-.86-1.41-.01-36.21-.01-72.42-.01-108.63,0-.5-.02-1-.03-1.5,12.45,0,24.9,0,37.35,0Z"/>
  <polygon class="cls-2" points="374.73 310.42 374.67 310.4 374.72 310.35 374.78 310.37 374.73 310.42"/>
</svg>